# MagicaVoxel @ Ephtracy

# group
g BaseHelic

# material
mtllib BaseHelic.mtl
usemtl palette

# normals
vn -1 0 0
vn 1 0 0
vn 0 0 1
vn 0 0 -1
vn 0 -1 0
vn 0 1 0

# texcoords
vt 0.958984 0.5
vt 0.986328 0.5

# verts
v -20 0 20
v -20 0 -20
v -20 4 20
v -20 4 -20
v 20 0 20
v 20 0 -20
v 20 4 20
v 20 4 -20
v -20 0 20
v -20 4 20
v 20 0 20
v 20 4 20
v -20 0 -20
v -20 4 -20
v 20 0 -20
v 20 4 -20
v -20 0 20
v 20 0 20
v -20 0 -20
v 20 0 -20
v -20 4 20
v 20 4 20
v -10 4 14
v -7 4 14
v 7 4 14
v 10 4 14
v -7 4 2
v 7 4 2
v -7 4 -1
v 7 4 -1
v -10 4 -13
v -7 4 -13
v 7 4 -13
v 10 4 -13
v -20 4 -20
v 20 4 -20

# faces
f 3/2/1 2/2/1 1/2/1
f 4/2/1 2/2/1 3/2/1
f 5/2/2 6/2/2 7/2/2
f 7/2/2 6/2/2 8/2/2
f 11/2/3 10/2/3 9/2/3
f 12/2/3 10/2/3 11/2/3
f 13/2/4 14/2/4 15/2/4
f 15/2/4 14/2/4 16/2/4
f 19/2/5 18/2/5 17/2/5
f 20/2/5 18/2/5 19/2/5
f 21/2/6 22/2/6 23/2/6
f 23/2/6 22/2/6 24/2/6
f 24/2/6 22/2/6 25/2/6
f 25/2/6 22/2/6 26/2/6
f 23/1/6 24/1/6 27/1/6
f 24/2/6 25/2/6 27/2/6
f 25/1/6 26/1/6 28/1/6
f 27/2/6 25/2/6 28/2/6
f 23/1/6 27/1/6 29/1/6
f 27/1/6 28/1/6 29/1/6
f 28/1/6 26/1/6 30/1/6
f 29/1/6 28/1/6 30/1/6
f 21/2/6 23/2/6 31/2/6
f 23/1/6 29/1/6 31/1/6
f 29/2/6 30/2/6 32/2/6
f 31/1/6 29/1/6 32/1/6
f 30/1/6 26/1/6 33/1/6
f 32/2/6 30/2/6 33/2/6
f 26/2/6 22/2/6 34/2/6
f 33/1/6 26/1/6 34/1/6
f 31/2/6 32/2/6 35/2/6
f 32/2/6 33/2/6 35/2/6
f 33/2/6 34/2/6 35/2/6
f 21/2/6 31/2/6 35/2/6
f 34/2/6 22/2/6 36/2/6
f 35/2/6 34/2/6 36/2/6
