# MagicaVoxel @ Ephtracy

# group
g pisoConcreto1

# material
mtllib pisoConcreto1.mtl
usemtl palette

# normals
vn -1 0 0
vn 1 0 0
vn 0 0 1
vn 0 0 -1
vn 0 -1 0
vn 0 1 0

# texcoords
vt 0.0214844 0.5
vt 0.306641 0.5
vt 0.873047 0.5
vt 0.904297 0.5
vt 0.982422 0.5
vt 0.986328 0.5

# verts
v -40 0 40
v -40 0 -40
v -40 51 40
v -40 51 39
v -40 51 -39
v -40 51 -40
v -40 52 39
v -40 52 -39
v -40 58 40
v -40 58 -40
v -40 78 40
v -40 78 -40
v -35 78 40
v -35 78 -40
v -35 79 40
v -35 79 -40
v -31 78 26
v -31 78 25
v -31 78 -14
v -31 78 -16
v -31 79 26
v -31 79 25
v -31 79 -14
v -31 79 -16
v -30 78 5
v -30 78 4
v -30 79 5
v -30 79 4
v -23 79 40
v -23 79 -40
v -23 80 40
v -23 80 -40
v -17 79 10
v -17 79 7
v -17 79 -4
v -17 79 -5
v -17 80 10
v -17 80 7
v -17 80 -4
v -17 80 -5
v -15 79 32
v -15 79 31
v -15 80 32
v -15 80 31
v -13 79 24
v -13 79 22
v -13 79 -22
v -13 79 -24
v -13 80 24
v -13 80 22
v -13 80 -22
v -13 80 -24
v -3 79 25
v -3 79 24
v -3 80 25
v -3 80 24
v -2 79 -24
v -2 79 -26
v -2 79 -31
v -2 79 -32
v -2 80 -24
v -2 80 -26
v -2 80 -31
v -2 80 -32
v 14 79 24
v 14 79 22
v 14 79 -22
v 14 79 -24
v 14 80 24
v 14 80 22
v 14 80 -22
v 14 80 -24
v 19 79 -4
v 19 79 -5
v 19 80 -4
v 19 80 -5
v 30 78 -5
v 30 78 -6
v 30 79 -5
v 30 79 -6
v 34 78 4
v 34 78 -4
v 34 79 4
v 34 79 -4
v -33 78 -14
v -33 78 -16
v -33 79 -14
v -33 79 -16
v -32 78 26
v -32 78 25
v -32 79 26
v -32 79 25
v -31 78 5
v -31 78 4
v -31 79 5
v -31 79 4
v -18 79 10
v -18 79 7
v -18 79 -4
v -18 79 -5
v -18 80 10
v -18 80 7
v -18 80 -4
v -18 80 -5
v -16 79 32
v -16 79 31
v -16 80 32
v -16 80 31
v -14 79 24
v -14 79 22
v -14 79 -22
v -14 79 -24
v -14 80 24
v -14 80 22
v -14 80 -22
v -14 80 -24
v -4 79 25
v -4 79 24
v -4 80 25
v -4 80 24
v -3 79 -24
v -3 79 -26
v -3 79 -31
v -3 79 -32
v -3 80 -24
v -3 80 -26
v -3 80 -31
v -3 80 -32
v 13 79 24
v 13 79 22
v 13 79 -22
v 13 79 -24
v 13 80 24
v 13 80 22
v 13 80 -22
v 13 80 -24
v 18 79 -4
v 18 79 -5
v 18 80 -4
v 18 80 -5
v 22 79 12
v 22 79 11
v 22 80 12
v 22 80 11
v 23 79 40
v 23 79 12
v 23 79 11
v 23 79 -40
v 23 80 40
v 23 80 12
v 23 80 11
v 23 80 -40
v 29 78 -5
v 29 78 -6
v 29 79 -5
v 29 79 -6
v 31 78 4
v 31 78 -4
v 31 79 4
v 31 79 -4
v 35 78 40
v 35 78 -40
v 35 79 40
v 35 79 -40
v 40 0 40
v 40 0 -40
v 40 51 40
v 40 51 39
v 40 51 -39
v 40 51 -40
v 40 52 39
v 40 52 -39
v 40 58 40
v 40 58 -40
v 40 78 40
v 40 78 -40
v -40 0 40
v -40 51 40
v -40 58 40
v -40 78 40
v -39 77 40
v -39 78 40
v -35 77 40
v -35 78 40
v -35 79 40
v -29 78 40
v -29 79 40
v -23 78 40
v -23 79 40
v -23 80 40
v 23 78 40
v 23 79 40
v 23 80 40
v 29 78 40
v 29 79 40
v 35 77 40
v 35 78 40
v 35 79 40
v 39 77 40
v 39 78 40
v 40 0 40
v 40 51 40
v 40 58 40
v 40 78 40
v -16 79 31
v -16 80 31
v -15 79 31
v -15 80 31
v -32 78 25
v -32 79 25
v -31 78 25
v -31 79 25
v -4 79 24
v -4 80 24
v -3 79 24
v -3 80 24
v -14 79 22
v -14 80 22
v -13 79 22
v -13 80 22
v 13 79 22
v 13 80 22
v 14 79 22
v 14 80 22
v 22 79 11
v 22 80 11
v 23 79 11
v 23 80 11
v -18 79 7
v -18 80 7
v -17 79 7
v -17 80 7
v -31 78 4
v -31 79 4
v -30 78 4
v -30 79 4
v 31 78 -4
v 31 79 -4
v 34 78 -4
v 34 79 -4
v -18 79 -5
v -18 80 -5
v -17 79 -5
v -17 80 -5
v 18 79 -5
v 18 80 -5
v 19 79 -5
v 19 80 -5
v 29 78 -6
v 29 79 -6
v 30 78 -6
v 30 79 -6
v -33 78 -16
v -33 79 -16
v -31 78 -16
v -31 79 -16
v -14 79 -24
v -14 80 -24
v -13 79 -24
v -13 80 -24
v 13 79 -24
v 13 80 -24
v 14 79 -24
v 14 80 -24
v -3 79 -26
v -3 80 -26
v -2 79 -26
v -2 80 -26
v -3 79 -32
v -3 80 -32
v -2 79 -32
v -2 80 -32
v -16 79 32
v -16 80 32
v -15 79 32
v -15 80 32
v -32 78 26
v -32 79 26
v -31 78 26
v -31 79 26
v -4 79 25
v -4 80 25
v -3 79 25
v -3 80 25
v -14 79 24
v -14 80 24
v -13 79 24
v -13 80 24
v 13 79 24
v 13 80 24
v 14 79 24
v 14 80 24
v 22 79 12
v 22 80 12
v 23 79 12
v 23 80 12
v -18 79 10
v -18 80 10
v -17 79 10
v -17 80 10
v -31 78 5
v -31 79 5
v -30 78 5
v -30 79 5
v 31 78 4
v 31 79 4
v 34 78 4
v 34 79 4
v -18 79 -4
v -18 80 -4
v -17 79 -4
v -17 80 -4
v 18 79 -4
v 18 80 -4
v 19 79 -4
v 19 80 -4
v 29 78 -5
v 29 79 -5
v 30 78 -5
v 30 79 -5
v -33 78 -14
v -33 79 -14
v -31 78 -14
v -31 79 -14
v -14 79 -22
v -14 80 -22
v -13 79 -22
v -13 80 -22
v 13 79 -22
v 13 80 -22
v 14 79 -22
v 14 80 -22
v -3 79 -24
v -3 80 -24
v -2 79 -24
v -2 80 -24
v -3 79 -31
v -3 80 -31
v -2 79 -31
v -2 80 -31
v -40 0 -40
v -40 51 -40
v -40 58 -40
v -40 78 -40
v -39 77 -40
v -39 78 -40
v -35 77 -40
v -35 78 -40
v -35 79 -40
v -29 78 -40
v -29 79 -40
v -23 78 -40
v -23 79 -40
v -23 80 -40
v 23 78 -40
v 23 79 -40
v 23 80 -40
v 29 78 -40
v 29 79 -40
v 35 77 -40
v 35 78 -40
v 35 79 -40
v 39 77 -40
v 39 78 -40
v 40 0 -40
v 40 51 -40
v 40 58 -40
v 40 78 -40
v -40 0 40
v 40 0 40
v -40 0 -40
v 40 0 -40
v -40 78 40
v -39 78 40
v -35 78 40
v 35 78 40
v 39 78 40
v 40 78 40
v -32 78 26
v -31 78 26
v -32 78 25
v -31 78 25
v -31 78 5
v -30 78 5
v -31 78 4
v -30 78 4
v 31 78 4
v 34 78 4
v 31 78 -4
v 34 78 -4
v 29 78 -5
v 30 78 -5
v 29 78 -6
v 30 78 -6
v -33 78 -14
v -31 78 -14
v -33 78 -16
v -31 78 -16
v -40 78 -40
v -39 78 -40
v -35 78 -40
v 35 78 -40
v 39 78 -40
v 40 78 -40
v -35 79 40
v -29 79 40
v -23 79 40
v 23 79 40
v 29 79 40
v 35 79 40
v -16 79 32
v -15 79 32
v -16 79 31
v -15 79 31
v -32 79 26
v -31 79 26
v -32 79 25
v -31 79 25
v -4 79 25
v -3 79 25
v -14 79 24
v -13 79 24
v -4 79 24
v -3 79 24
v 13 79 24
v 14 79 24
v -14 79 22
v -13 79 22
v 13 79 22
v 14 79 22
v 22 79 12
v 23 79 12
v 22 79 11
v 23 79 11
v -18 79 10
v -17 79 10
v -18 79 7
v -17 79 7
v -31 79 5
v -30 79 5
v -31 79 4
v -30 79 4
v 31 79 4
v 34 79 4
v -18 79 -4
v -17 79 -4
v 18 79 -4
v 19 79 -4
v 31 79 -4
v 34 79 -4
v -18 79 -5
v -17 79 -5
v 18 79 -5
v 19 79 -5
v 29 79 -5
v 30 79 -5
v 29 79 -6
v 30 79 -6
v -33 79 -14
v -31 79 -14
v -33 79 -16
v -31 79 -16
v -14 79 -22
v -13 79 -22
v 13 79 -22
v 14 79 -22
v -14 79 -24
v -13 79 -24
v -3 79 -24
v -2 79 -24
v 13 79 -24
v 14 79 -24
v -3 79 -26
v -2 79 -26
v -3 79 -31
v -2 79 -31
v -3 79 -32
v -2 79 -32
v -35 79 -40
v -29 79 -40
v -23 79 -40
v 23 79 -40
v 29 79 -40
v 35 79 -40
v -23 80 40
v 23 80 40
v -16 80 32
v -15 80 32
v -16 80 31
v -15 80 31
v -4 80 25
v -3 80 25
v -14 80 24
v -13 80 24
v -4 80 24
v -3 80 24
v 13 80 24
v 14 80 24
v -14 80 22
v -13 80 22
v 13 80 22
v 14 80 22
v 22 80 12
v 23 80 12
v 22 80 11
v 23 80 11
v -18 80 10
v -17 80 10
v -5 80 10
v 5 80 10
v -18 80 7
v -17 80 7
v -18 80 -4
v -17 80 -4
v 18 80 -4
v 19 80 -4
v -18 80 -5
v -17 80 -5
v 18 80 -5
v 19 80 -5
v -5 80 -10
v 5 80 -10
v -14 80 -22
v -13 80 -22
v 13 80 -22
v 14 80 -22
v -14 80 -24
v -13 80 -24
v -3 80 -24
v -2 80 -24
v 13 80 -24
v 14 80 -24
v -3 80 -26
v -2 80 -26
v -3 80 -31
v -2 80 -31
v -3 80 -32
v -2 80 -32
v -23 80 -40
v 23 80 -40

# faces
f 3/3/1 2/3/1 1/3/1
f 4/3/1 2/3/1 3/3/1
f 5/3/1 2/3/1 4/3/1
f 6/3/1 2/3/1 5/3/1
f 7/4/1 4/4/1 3/4/1
f 7/3/1 5/3/1 4/3/1
f 8/4/1 6/4/1 5/4/1
f 8/3/1 5/3/1 7/3/1
f 9/4/1 7/4/1 3/4/1
f 9/4/1 8/4/1 7/4/1
f 10/4/1 6/4/1 8/4/1
f 10/4/1 8/4/1 9/4/1
f 11/6/1 10/6/1 9/6/1
f 12/6/1 10/6/1 11/6/1
f 15/6/1 14/6/1 13/6/1
f 16/6/1 14/6/1 15/6/1
f 21/6/1 18/6/1 17/6/1
f 22/6/1 18/6/1 21/6/1
f 23/6/1 20/6/1 19/6/1
f 24/6/1 20/6/1 23/6/1
f 27/6/1 26/6/1 25/6/1
f 28/6/1 26/6/1 27/6/1
f 31/6/1 30/6/1 29/6/1
f 32/6/1 30/6/1 31/6/1
f 37/6/1 34/6/1 33/6/1
f 38/6/1 34/6/1 37/6/1
f 39/6/1 36/6/1 35/6/1
f 40/6/1 36/6/1 39/6/1
f 43/6/1 42/6/1 41/6/1
f 44/6/1 42/6/1 43/6/1
f 49/6/1 46/6/1 45/6/1
f 50/6/1 46/6/1 49/6/1
f 51/6/1 48/6/1 47/6/1
f 52/6/1 48/6/1 51/6/1
f 55/6/1 54/6/1 53/6/1
f 56/6/1 54/6/1 55/6/1
f 61/6/1 58/6/1 57/6/1
f 62/6/1 58/6/1 61/6/1
f 63/6/1 60/6/1 59/6/1
f 64/6/1 60/6/1 63/6/1
f 69/6/1 66/6/1 65/6/1
f 70/6/1 66/6/1 69/6/1
f 71/6/1 68/6/1 67/6/1
f 72/6/1 68/6/1 71/6/1
f 75/6/1 74/6/1 73/6/1
f 76/6/1 74/6/1 75/6/1
f 79/6/1 78/6/1 77/6/1
f 80/6/1 78/6/1 79/6/1
f 83/6/1 82/6/1 81/6/1
f 84/6/1 82/6/1 83/6/1
f 85/6/2 86/6/2 87/6/2
f 87/6/2 86/6/2 88/6/2
f 89/6/2 90/6/2 91/6/2
f 91/6/2 90/6/2 92/6/2
f 93/6/2 94/6/2 95/6/2
f 95/6/2 94/6/2 96/6/2
f 97/6/2 98/6/2 101/6/2
f 101/6/2 98/6/2 102/6/2
f 99/6/2 100/6/2 103/6/2
f 103/6/2 100/6/2 104/6/2
f 105/6/2 106/6/2 107/6/2
f 107/6/2 106/6/2 108/6/2
f 109/6/2 110/6/2 113/6/2
f 113/6/2 110/6/2 114/6/2
f 111/6/2 112/6/2 115/6/2
f 115/6/2 112/6/2 116/6/2
f 117/6/2 118/6/2 119/6/2
f 119/6/2 118/6/2 120/6/2
f 121/6/2 122/6/2 125/6/2
f 125/6/2 122/6/2 126/6/2
f 123/6/2 124/6/2 127/6/2
f 127/6/2 124/6/2 128/6/2
f 129/6/2 130/6/2 133/6/2
f 133/6/2 130/6/2 134/6/2
f 131/6/2 132/6/2 135/6/2
f 135/6/2 132/6/2 136/6/2
f 137/6/2 138/6/2 139/6/2
f 139/6/2 138/6/2 140/6/2
f 141/6/2 142/6/2 143/6/2
f 143/6/2 142/6/2 144/6/2
f 145/6/2 146/6/2 149/6/2
f 149/6/2 146/6/2 150/6/2
f 147/6/2 148/6/2 151/6/2
f 151/6/2 148/6/2 152/6/2
f 153/5/2 154/5/2 155/5/2
f 155/5/2 154/5/2 156/5/2
f 157/6/2 158/6/2 159/6/2
f 159/6/2 158/6/2 160/6/2
f 161/6/2 162/6/2 163/6/2
f 163/6/2 162/6/2 164/6/2
f 165/3/2 166/3/2 167/3/2
f 167/3/2 166/3/2 168/3/2
f 168/3/2 166/3/2 169/3/2
f 169/3/2 166/3/2 170/3/2
f 167/4/2 168/4/2 171/4/2
f 168/3/2 169/3/2 171/3/2
f 169/4/2 170/4/2 172/4/2
f 171/3/2 169/3/2 172/3/2
f 167/4/2 171/4/2 173/4/2
f 171/4/2 172/4/2 173/4/2
f 172/4/2 170/4/2 174/4/2
f 173/4/2 172/4/2 174/4/2
f 173/6/2 174/6/2 175/6/2
f 175/6/2 174/6/2 176/6/2
f 181/6/3 180/6/3 179/6/3
f 182/6/3 180/6/3 181/6/3
f 183/6/3 181/6/3 179/6/3
f 183/5/3 182/5/3 181/5/3
f 184/5/3 182/5/3 183/5/3
f 186/6/3 184/6/3 183/6/3
f 186/6/3 185/6/3 184/6/3
f 187/6/3 185/6/3 186/6/3
f 188/6/3 186/6/3 183/6/3
f 188/5/3 187/5/3 186/5/3
f 189/5/3 187/5/3 188/5/3
f 191/6/3 189/6/3 188/6/3
f 191/6/3 190/6/3 189/6/3
f 191/6/3 188/6/3 183/6/3
f 192/6/3 190/6/3 191/6/3
f 193/6/3 190/6/3 192/6/3
f 194/6/3 191/6/3 183/6/3
f 194/5/3 192/5/3 191/5/3
f 195/5/3 192/5/3 194/5/3
f 196/6/3 183/6/3 179/6/3
f 196/6/3 194/6/3 183/6/3
f 196/6/3 195/6/3 194/6/3
f 197/6/3 195/6/3 196/6/3
f 198/6/3 195/6/3 197/6/3
f 199/6/3 196/6/3 179/6/3
f 199/5/3 197/5/3 196/5/3
f 200/5/3 197/5/3 199/5/3
f 201/3/3 178/3/3 177/3/3
f 202/4/3 179/4/3 178/4/3
f 202/3/3 178/3/3 201/3/3
f 203/6/3 199/6/3 179/6/3
f 203/4/3 179/4/3 202/4/3
f 203/6/3 200/6/3 199/6/3
f 204/6/3 200/6/3 203/6/3
f 207/6/3 206/6/3 205/6/3
f 208/6/3 206/6/3 207/6/3
f 211/6/3 210/6/3 209/6/3
f 212/6/3 210/6/3 211/6/3
f 215/6/3 214/6/3 213/6/3
f 216/6/3 214/6/3 215/6/3
f 219/6/3 218/6/3 217/6/3
f 220/6/3 218/6/3 219/6/3
f 223/6/3 222/6/3 221/6/3
f 224/6/3 222/6/3 223/6/3
f 227/6/3 226/6/3 225/6/3
f 228/6/3 226/6/3 227/6/3
f 231/6/3 230/6/3 229/6/3
f 232/6/3 230/6/3 231/6/3
f 235/6/3 234/6/3 233/6/3
f 236/6/3 234/6/3 235/6/3
f 239/6/3 238/6/3 237/6/3
f 240/6/3 238/6/3 239/6/3
f 243/6/3 242/6/3 241/6/3
f 244/6/3 242/6/3 243/6/3
f 247/6/3 246/6/3 245/6/3
f 248/6/3 246/6/3 247/6/3
f 251/6/3 250/6/3 249/6/3
f 252/6/3 250/6/3 251/6/3
f 255/6/3 254/6/3 253/6/3
f 256/6/3 254/6/3 255/6/3
f 259/6/3 258/6/3 257/6/3
f 260/6/3 258/6/3 259/6/3
f 263/6/3 262/6/3 261/6/3
f 264/6/3 262/6/3 263/6/3
f 267/6/3 266/6/3 265/6/3
f 268/6/3 266/6/3 267/6/3
f 271/6/3 270/6/3 269/6/3
f 272/6/3 270/6/3 271/6/3
f 273/6/4 274/6/4 275/6/4
f 275/6/4 274/6/4 276/6/4
f 277/6/4 278/6/4 279/6/4
f 279/6/4 278/6/4 280/6/4
f 281/6/4 282/6/4 283/6/4
f 283/6/4 282/6/4 284/6/4
f 285/6/4 286/6/4 287/6/4
f 287/6/4 286/6/4 288/6/4
f 289/6/4 290/6/4 291/6/4
f 291/6/4 290/6/4 292/6/4
f 293/6/4 294/6/4 295/6/4
f 295/6/4 294/6/4 296/6/4
f 297/6/4 298/6/4 299/6/4
f 299/6/4 298/6/4 300/6/4
f 301/6/4 302/6/4 303/6/4
f 303/6/4 302/6/4 304/6/4
f 305/6/4 306/6/4 307/6/4
f 307/6/4 306/6/4 308/6/4
f 309/6/4 310/6/4 311/6/4
f 311/6/4 310/6/4 312/6/4
f 313/6/4 314/6/4 315/6/4
f 315/6/4 314/6/4 316/6/4
f 317/6/4 318/6/4 319/6/4
f 319/6/4 318/6/4 320/6/4
f 321/6/4 322/6/4 323/6/4
f 323/6/4 322/6/4 324/6/4
f 325/6/4 326/6/4 327/6/4
f 327/6/4 326/6/4 328/6/4
f 329/6/4 330/6/4 331/6/4
f 331/6/4 330/6/4 332/6/4
f 333/6/4 334/6/4 335/6/4
f 335/6/4 334/6/4 336/6/4
f 337/6/4 338/6/4 339/6/4
f 339/6/4 338/6/4 340/6/4
f 343/6/4 344/6/4 345/6/4
f 345/6/4 344/6/4 346/6/4
f 343/6/4 345/6/4 347/6/4
f 345/5/4 346/5/4 347/5/4
f 347/5/4 346/5/4 348/5/4
f 347/6/4 348/6/4 350/6/4
f 348/6/4 349/6/4 350/6/4
f 350/6/4 349/6/4 351/6/4
f 347/6/4 350/6/4 352/6/4
f 350/5/4 351/5/4 352/5/4
f 352/5/4 351/5/4 353/5/4
f 352/6/4 353/6/4 355/6/4
f 353/6/4 354/6/4 355/6/4
f 347/6/4 352/6/4 355/6/4
f 355/6/4 354/6/4 356/6/4
f 356/6/4 354/6/4 357/6/4
f 347/6/4 355/6/4 358/6/4
f 355/5/4 356/5/4 358/5/4
f 358/5/4 356/5/4 359/5/4
f 343/6/4 347/6/4 360/6/4
f 347/6/4 358/6/4 360/6/4
f 358/6/4 359/6/4 360/6/4
f 360/6/4 359/6/4 361/6/4
f 361/6/4 359/6/4 362/6/4
f 343/6/4 360/6/4 363/6/4
f 360/5/4 361/5/4 363/5/4
f 363/5/4 361/5/4 364/5/4
f 341/3/4 342/3/4 365/3/4
f 342/4/4 343/4/4 366/4/4
f 365/3/4 342/3/4 366/3/4
f 343/6/4 363/6/4 367/6/4
f 366/4/4 343/4/4 367/4/4
f 363/6/4 364/6/4 367/6/4
f 367/6/4 364/6/4 368/6/4
f 371/3/5 370/3/5 369/3/5
f 372/3/5 370/3/5 371/3/5
f 379/6/6 380/6/6 381/6/6
f 381/6/6 380/6/6 382/6/6
f 383/6/6 384/6/6 385/6/6
f 385/6/6 384/6/6 386/6/6
f 387/6/6 388/6/6 389/6/6
f 389/6/6 388/6/6 390/6/6
f 391/6/6 392/6/6 393/6/6
f 393/6/6 392/6/6 394/6/6
f 395/6/6 396/6/6 397/6/6
f 397/6/6 396/6/6 398/6/6
f 373/6/6 374/6/6 399/6/6
f 374/5/6 375/5/6 400/5/6
f 399/6/6 374/6/6 400/6/6
f 400/5/6 375/5/6 401/5/6
f 376/5/6 377/5/6 402/5/6
f 377/6/6 378/6/6 403/6/6
f 402/5/6 377/5/6 403/5/6
f 403/6/6 378/6/6 404/6/6
f 411/6/6 412/6/6 413/6/6
f 413/6/6 412/6/6 414/6/6
f 405/6/6 406/6/6 415/6/6
f 415/6/6 406/6/6 416/6/6
f 405/6/6 415/6/6 417/6/6
f 416/6/6 406/6/6 418/6/6
f 419/6/6 420/6/6 423/6/6
f 423/6/6 420/6/6 424/6/6
f 421/5/6 422/5/6 427/5/6
f 427/5/6 422/5/6 428/5/6
f 425/5/6 426/5/6 429/5/6
f 429/5/6 426/5/6 430/5/6
f 408/5/6 409/5/6 432/5/6
f 431/6/6 432/6/6 433/6/6
f 432/5/6 409/5/6 434/5/6
f 433/6/6 432/6/6 434/6/6
f 435/6/6 436/6/6 437/6/6
f 437/6/6 436/6/6 438/6/6
f 417/6/6 418/6/6 439/6/6
f 418/6/6 406/6/6 439/6/6
f 439/6/6 406/6/6 440/6/6
f 417/6/6 439/6/6 441/6/6
f 440/6/6 406/6/6 442/6/6
f 409/6/6 410/6/6 443/6/6
f 443/6/6 410/6/6 444/6/6
f 409/6/6 443/6/6 449/6/6
f 444/6/6 410/6/6 450/6/6
f 445/6/6 446/6/6 451/6/6
f 451/6/6 446/6/6 452/6/6
f 447/6/6 448/6/6 453/6/6
f 453/6/6 448/6/6 454/6/6
f 434/5/6 409/5/6 455/5/6
f 409/6/6 449/6/6 455/6/6
f 449/6/6 450/6/6 455/6/6
f 455/6/6 450/6/6 456/6/6
f 434/5/6 455/5/6 457/5/6
f 456/6/6 450/6/6 458/6/6
f 441/6/6 442/6/6 459/6/6
f 405/6/6 417/6/6 459/6/6
f 417/6/6 441/6/6 459/6/6
f 459/6/6 442/6/6 460/6/6
f 405/6/6 459/6/6 461/6/6
f 460/6/6 442/6/6 462/6/6
f 463/5/6 464/5/6 467/5/6
f 467/5/6 464/5/6 468/5/6
f 465/5/6 466/5/6 471/5/6
f 471/5/6 466/5/6 472/5/6
f 469/6/6 470/6/6 473/6/6
f 473/6/6 470/6/6 474/6/6
f 475/6/6 476/6/6 477/6/6
f 477/6/6 476/6/6 478/6/6
f 405/6/6 461/6/6 479/6/6
f 461/6/6 462/6/6 479/6/6
f 406/5/6 407/5/6 480/5/6
f 479/6/6 462/6/6 480/6/6
f 442/6/6 406/6/6 480/6/6
f 462/6/6 442/6/6 480/6/6
f 480/5/6 407/5/6 481/5/6
f 434/5/6 457/5/6 482/5/6
f 457/6/6 458/6/6 483/6/6
f 482/5/6 457/5/6 483/5/6
f 458/6/6 450/6/6 484/6/6
f 483/6/6 458/6/6 484/6/6
f 450/6/6 410/6/6 484/6/6
f 485/6/6 486/6/6 487/6/6
f 487/6/6 486/6/6 488/6/6
f 485/6/6 487/6/6 489/6/6
f 488/6/6 486/6/6 490/6/6
f 490/6/6 486/6/6 491/6/6
f 489/6/6 490/6/6 491/6/6
f 491/6/6 486/6/6 492/6/6
f 489/6/6 491/6/6 493/6/6
f 493/6/6 491/6/6 494/6/6
f 494/6/6 491/6/6 495/6/6
f 492/6/6 486/6/6 496/6/6
f 496/6/6 486/6/6 497/6/6
f 497/6/6 486/6/6 498/6/6
f 489/6/6 493/6/6 499/6/6
f 494/6/6 495/6/6 500/6/6
f 496/6/6 497/6/6 500/6/6
f 495/6/6 496/6/6 500/6/6
f 500/6/6 497/6/6 501/6/6
f 498/6/6 486/6/6 502/6/6
f 500/6/6 501/6/6 503/6/6
f 501/6/6 502/6/6 503/6/6
f 502/6/6 486/6/6 503/6/6
f 499/6/6 500/6/6 503/6/6
f 503/6/6 486/6/6 504/6/6
f 499/6/6 503/6/6 505/6/6
f 485/6/6 489/6/6 507/6/6
f 505/6/6 506/6/6 507/6/6
f 499/6/6 505/6/6 507/6/6
f 489/6/6 499/6/6 507/6/6
f 507/6/6 506/6/6 508/6/6
f 508/6/6 506/6/6 509/6/6
f 509/6/6 506/6/6 510/6/6
f 485/6/6 507/6/6 511/6/6
f 508/6/6 509/6/6 512/6/6
f 485/6/6 511/6/6 513/6/6
f 511/6/6 512/6/6 513/6/6
f 512/6/6 509/6/6 514/6/6
f 513/6/6 512/6/6 514/6/6
f 510/6/6 506/6/6 515/6/6
f 515/6/6 506/6/6 516/6/6
f 485/6/6 513/6/6 517/6/6
f 514/6/6 509/6/6 518/6/6
f 510/6/6 515/6/6 519/6/6
f 516/6/6 506/6/6 520/6/6
f 509/1/6 510/1/6 521/1/6
f 517/6/6 518/6/6 521/6/6
f 518/6/6 509/6/6 521/6/6
f 519/6/6 520/6/6 522/6/6
f 521/1/6 510/1/6 522/1/6
f 510/6/6 519/6/6 522/6/6
f 517/6/6 521/6/6 523/6/6
f 521/6/6 522/6/6 523/6/6
f 523/6/6 522/6/6 524/6/6
f 522/6/6 520/6/6 525/6/6
f 524/6/6 522/6/6 525/6/6
f 525/6/6 520/6/6 526/6/6
f 517/6/6 523/6/6 527/6/6
f 524/6/6 525/6/6 528/6/6
f 528/6/6 525/6/6 529/6/6
f 529/6/6 525/6/6 530/6/6
f 530/6/6 525/6/6 531/6/6
f 526/6/6 520/6/6 532/6/6
f 527/6/6 528/6/6 533/6/6
f 528/6/6 529/6/6 533/6/6
f 530/6/6 531/6/6 534/6/6
f 531/6/6 532/6/6 534/6/6
f 527/6/6 533/6/6 535/6/6
f 533/6/6 534/6/6 535/6/6
f 534/6/6 532/6/6 536/6/6
f 535/6/6 534/6/6 536/6/6
f 527/6/6 535/6/6 537/6/6
f 536/6/6 532/6/6 538/6/6
f 485/6/6 517/6/6 539/6/6
f 537/6/6 538/6/6 539/6/6
f 527/6/6 537/6/6 539/6/6
f 517/6/6 527/6/6 539/6/6
f 538/6/6 532/6/6 540/6/6
f 539/6/6 538/6/6 540/6/6
f 520/6/6 506/6/6 540/6/6
f 532/6/6 520/6/6 540/6/6
